:FULLY-SPECIFIED
:FORCE-ALL-JOINTS-BE-3DOF
:DEGREES
2141
root -2.59021 15.1975 -0.295392 904.228 7.85526 186.097
lfemur -50.6756 13.4044 -28.6944
ltibia 48.1749 -0 0
lfoot 5.60735 20.3703 -0.100043
ltoes 10.6787 -0 0
rfemur -17.4102 -0.879779 20.4926
rtibia 87.1953 -0 0
rfoot -8.68921 -0.84094 0.625604
rtoes -22.2569 0 0
lowerback 8.62722 0.484604 -0.15712
upperback -1.72385 0.963378 3.45899
thorax -6.72647 0.600947 3.58493
lowerneck -4.98527 0.267895 -4.47374
upperneck 4.84759 0.538061 2.76217
head 2.3938 0.270931 1.68703
lclavicle 2.10823e-14 -1.67738e-14 9.5882e-31
lhumerus 52.8398 4.2143 108.586
lradius 12.503 -0 0
lwrist -49.7542 0 0
lhand -26.9668 38.5855 -0.703093
lfingers 7.12502 -0 0
lthumb -8.4414 77.1542 -0.0107909
rclavicle -1.89405e-14 4.11071e-15 -8.53978e-31
rhumerus -53.9716 20.7538 -98.1322
rradius 108.033 -0 0
rwrist -83.4646 0 0
rhand -15.2775 -33.1422 -0.000230028
rfingers 7.12502 -0 0
rthumb 11.0481 -62.6628 0.00643363
2142
root -2.57552 15.1969 -0.514601 903.462 6.84501 185.14
lfemur -50.0518 13.4159 -29.1536
ltibia 49.4401 -0 0
lfoot 4.79563 20.5777 -0.135056
ltoes 9.48356 -0 0
rfemur -17.9834 -1.05951 19.7722
rtibia 88.6561 -0 0
rfoot -7.31963 -0.296795 0.554308
rtoes -21.0437 0 0
lowerback 9.68038 0.158282 -1.03962
upperback -1.44707 0.403408 3.31028
thorax -7.00309 0.350963 4.01636
lowerneck -5.07839 0.378048 -4.43408
upperneck 4.69031 0.703183 2.45032
head 2.35071 0.345446 1.58229
lclavicle 1.88204e-14 -1.55338e-14 1.14579e-30
lhumerus 52.6406 3.89169 108.214
lradius 12.848 -0 0
lwrist -48.2006 0 0
lhand -28.1326 39.3252 -0.520445
lfingers 7.12502 -0 0
lthumb -8.30174 76.981 -0.0142911
rclavicle -1.84476e-14 6.44142e-15 -8.84261e-31
rhumerus -53.4846 20.484 -97.5405
rradius 108.334 -0 0
rwrist -82.8032 0 0
rhand -15.3269 -393.139 0
rfingers 7.12502 -0 0
rthumb 11.3098 -62.5753 0.0248365
2143
root -2.5618 15.2055 -0.734941 902.871 6.12727 184.092
lfemur -49.5124 13.4298 -29.5507
ltibia 50.6706 -0 0
lfoot 3.87884 20.8124 -0.171059
ltoes 8.0975 -0 0
rfemur -18.5067 -1.23049 19.1138
rtibia 89.9838 -0 0
rfoot -6.03211 0.213327 0.475398
rtoes -19.8248 0 0
lowerback 10.4867 -0.0204328 -1.93176
upperback -1.20673 0.0137355 3.05488
thorax -7.17732 0.182604 4.32251
lowerneck -5.29888 0.402811 -4.38228
upperneck 4.77636 0.75439 2.22752
head 2.41728 0.365493 1.50544
lclavicle 1.64036e-14 -1.42089e-14 1.29147e-30
lhumerus 52.3284 3.37592 107.624
lradius 13.4027 -0 0
lwrist -46.4539 0 0
lhand -29.1267 39.9542 -0.352496
lfingers 7.12502 -0 0
lthumb -8.14558 76.7874 -0.0177047
rclavicle -1.79496e-14 8.7962e-15 -8.94494e-31
rhumerus -52.9845 20.2 -96.9317
rradius 108.739 -0 0
rwrist -82.0596 0 0
rhand -15.2105 -33.1177 0.00548509
rfingers 7.12502 -0 0
rthumb 11.7298 -62.4346 0.0535341
2144
root -2.54845 15.2214 -0.950157 902.199 5.44656 182.846
lfemur -49.0703 13.4439 -29.8761
ltibia 51.8432 -0 0
lfoot 2.86998 21.0714 -0.206324
ltoes 6.54784 -0 0
rfemur -18.9716 -1.38801 18.5279
rtibia 91.1594 -0 0
rfoot -4.84136 0.68368 0.392188
rtoes -18.6116 0 0
lowerback 11.4115 -0.173002 -2.99469
upperback -0.942153 -0.386769 2.69827
thorax -7.38235 0.0158423 4.62873
lowerneck -5.57479 0.405493 -4.24975
upperneck 4.90092 0.770187 2.03858
head 2.5086 0.369952 1.42522
lclavicle 1.38837e-14 -1.28274e-14 1.38385e-30
lhumerus 51.9208 2.68378 106.844
lradius 14.1501 -0 0
lwrist -44.5418 0 0
lhand -29.9314 40.462 -0.208338
lfingers 7.12502 -0 0
lthumb -7.97566 76.5768 -0.0208194
rclavicle -1.74516e-14 1.1151e-14 -8.84261e-31
rhumerus -52.4804 19.9061 -96.3166
rradius 109.242 -0 0
rwrist -81.2455 0 0
rhand -14.8729 -33.056 0.0211387
rfingers 7.12502 -0 0
rthumb 12.2953 -62.2449 0.0905315
2145
root -2.53406 15.2447 -1.16728 901.622 5.15312 181.468
lfemur -48.7385 13.4561 -30.1202
ltibia 52.9347 -0 0
lfoot 1.78218 21.3512 -0.239229
ltoes 4.86186 -0 0
rfemur -19.3702 -1.5273 18.025
rtibia 92.164 -0 0
rfoot -3.76207 1.10868 0.308287
rtoes -17.4158 0 0
lowerback 12.1855 -0.163685 -4.23482
upperback -0.698813 -0.613041 2.27675
thorax -7.53285 -0.0580448 4.93846
lowerneck -5.70761 0.387382 -4.14144
upperneck 4.89197 0.747213 1.95215
head 2.53061 0.35805 1.37822
lclavicle 1.13121e-14 -1.14177e-14 1.41549e-30
lhumerus 51.4367 1.83202 105.9
lradius 15.0738 -0 0
lwrist -42.4918 0 0
lhand -30.5285 40.8379 -0.0966092
lfingers 7.12502 -0 0
lthumb -7.79473 76.3526 -0.023449
rclavicle -1.69587e-14 1.34817e-14 -8.53978e-31
rhumerus -51.9805 19.6071 -95.7054
rradius 109.831 -0 0
rwrist -80.3728 0 0
rhand -14.3319 -32.9569 0.0454713
rfingers 7.12502 -0 0
rthumb 12.9928 -62.0104 0.133576
2146
root -2.51848 15.2728 -1.38476 901.273 5.0669 180.231
lfemur -48.53 13.4645 -30.2736
ltibia 53.9218 -0 0
lfoot 0.628545 21.6485 -0.26831
ltoes 3.0668 -0 0
rfemur -19.6943 -1.64345 17.6156
rtibia 92.9783 -0 0
rfoot -2.80886 1.48286 0.227495
rtoes -16.249 0 0
lowerback 12.7101 -0.0840755 -5.37104
upperback -0.533446 -0.730194 1.87668
thorax -7.63357 -0.0793267 5.18848
lowerneck -5.73517 0.372407 -4.03184
upperneck 4.84086 0.717201 1.97288
head 2.51941 0.345972 1.36411
lclavicle 8.74054e-15 -1.00079e-14 1.38385e-30
lhumerus 50.8947 0.837377 104.817
lradius 16.1566 -0 0
lwrist -40.3314 0 0
lhand -30.9001 41.0716 -0.025016
lfingers 7.12502 -0 0
lthumb -7.60554 76.1181 -0.0254412
rclavicle -1.6476e-14 1.57643e-14 -8.04886e-31
rhumerus -51.4931 19.3082 -95.1081
rradius 110.5 -0 0
rwrist -79.4531 0 0
rhand -13.6051 -32.8234 0.076679
rfingers 7.12502 -0 0
rthumb 13.8095 -61.7353 0.18033
